solid 
facet normal -2.3281315e-07 1 2.0479138e-07
 outer loop
  vertex 0.9039947 1.2205355 0.35784274
  vertex -0.18120766 1.2205353 0.28835353
  vertex 0.11628756 1.2205353 0.62655526
 endloop
endfacet
facet normal -4.7835734e-08 1 7.470364e-07
 outer loop
  vertex 0.9039947 1.2205355 0.35784274
  vertex 0.11628756 1.2205353 0.62655526
  vertex 0.56579274 1.2205353 0.6553389
 endloop
endfacet
facet normal 3.1049825e-07 -1 -2.73126e-07
 outer loop
  vertex 0.006284386 1.1340379 0.42337283
  vertex 0.22273317 1.134038 0.23297602
  vertex 0.5477608 1.134038 0.60247767
 endloop
endfacet
facet normal 3.1049876e-07 -1 -2.7312754e-07
 outer loop
  vertex 0.006284386 1.1340379 0.42337283
  vertex 0.5477608 1.134038 0.60247767
  vertex 0.14091548 1.1340379 0.5764251
 endloop
endfacet
facet normal 0.06341235 0.12383631 -0.9902744
 outer loop
  vertex 0.1754761 1.2205356 -0.48884538
  vertex 0.64935213 1.2205358 -0.45850065
  vertex 0.65461314 1.1322097 -0.46920916
 endloop
endfacet
facet normal 0.0634101 0.12382381 -0.99027616
 outer loop
  vertex 0.1754761 1.2205356 -0.48884538
  vertex 0.65461314 1.1322097 -0.46920916
  vertex 0.17162475 1.1322095 -0.50013626
 endloop
endfacet
facet normal 0.7450693 0.123827845 -0.6553919
 outer loop
  vertex 0.64935213 1.2205358 -0.45850065
  vertex 0.9629759 1.2205356 -0.10196366
  vertex 0.97426736 1.1322095 -0.105815284
 endloop
endfacet
facet normal 0.74506956 0.1238373 -0.6553897
 outer loop
  vertex 0.64935213 1.2205358 -0.45850065
  vertex 0.97426736 1.1322095 -0.105815284
  vertex 0.65461314 1.1322097 -0.46920916
 endloop
endfacet
facet normal 0.99027634 0.123822555 0.06340997
 outer loop
  vertex 0.9629759 1.2205356 -0.10196366
  vertex 0.93263245 1.2205355 0.37191188
  vertex 0.94333977 1.1322095 0.377172
 endloop
endfacet
facet normal 0.9902753 0.123829804 0.06341127
 outer loop
  vertex 0.9629759 1.2205356 -0.10196366
  vertex 0.94333977 1.1322095 0.377172
  vertex 0.97426736 1.1322095 -0.105815284
 endloop
endfacet
facet normal 0.65539145 0.12382782 0.7450696
 outer loop
  vertex 0.93263245 1.2205355 0.37191188
  vertex 0.57609385 1.2205353 0.68553674
  vertex 0.57994545 1.1322093 0.6968282
 endloop
endfacet
facet normal 0.6553928 0.12382139 0.74506944
 outer loop
  vertex 0.93263245 1.2205355 0.37191188
  vertex 0.57994545 1.1322093 0.6968282
  vertex 0.94333977 1.1322095 0.377172
 endloop
endfacet
facet normal -0.06341047 0.12382143 0.9902764
 outer loop
  vertex 0.57609385 1.2205353 0.68553674
  vertex 0.10221842 1.2205353 0.65519303
  vertex 0.09695807 1.1322093 0.66590023
 endloop
endfacet
facet normal -0.06341198 0.12382994 0.99027526
 outer loop
  vertex 0.57609385 1.2205353 0.68553674
  vertex 0.09695807 1.1322093 0.66590023
  vertex 0.57994545 1.1322093 0.6968282
 endloop
endfacet
facet normal -0.7450698 0.12382674 0.6553915
 outer loop
  vertex 0.10221842 1.2205353 0.65519303
  vertex -0.21140587 1.2205353 0.298655
  vertex -0.22269666 1.1322093 0.3025072
 endloop
endfacet
facet normal -0.7450697 0.12382239 0.65539247
 outer loop
  vertex 0.10221842 1.2205353 0.65519303
  vertex -0.22269666 1.1322093 0.3025072
  vertex 0.09695807 1.1322093 0.66590023
 endloop
endfacet
facet normal -0.99027425 0.12383705 -0.063413195
 outer loop
  vertex -0.21140587 1.2205353 0.298655
  vertex -0.18106067 1.2205355 -0.17522183
  vertex -0.19176924 1.1322095 -0.18048266
 endloop
endfacet
facet normal -0.99027634 0.123822354 -0.06341057
 outer loop
  vertex -0.21140587 1.2205353 0.298655
  vertex -0.19176924 1.1322095 -0.18048266
  vertex -0.22269666 1.1322093 0.3025072
 endloop
endfacet
facet normal -0.65539235 0.123821184 -0.7450699
 outer loop
  vertex -0.18106067 1.2205355 -0.17522183
  vertex 0.1754761 1.2205356 -0.48884538
  vertex 0.17162475 1.1322095 -0.50013626
 endloop
endfacet
facet normal -0.65538895 0.12383636 -0.7450704
 outer loop
  vertex -0.18106067 1.2205355 -0.17522183
  vertex 0.17162475 1.1322095 -0.50013626
  vertex -0.19176924 1.1322095 -0.18048266
 endloop
endfacet
facet normal -0.65539134 0.12382937 -0.7450694
 outer loop
  vertex -0.313043 0.13184315 -0.2400623
  vertex 0.1279999 0.1318433 -0.6280204
  vertex 0.12414855 0.043516845 -0.6393123
 endloop
endfacet
facet normal -0.65539116 0.12383091 -0.7450694
 outer loop
  vertex -0.313043 0.13184315 -0.2400623
  vertex 0.12414855 0.043516845 -0.6393123
  vertex -0.32375115 0.043516695 -0.24532291
 endloop
endfacet
facet normal -0.990275 0.12383161 -0.06341263
 outer loop
  vertex -0.35058016 0.13184294 0.3461314
  vertex -0.313043 0.13184315 -0.2400623
  vertex -0.32375115 0.043516695 -0.24532291
 endloop
endfacet
facet normal -0.9902762 0.12382289 -0.063411385
 outer loop
  vertex -0.35058016 0.13184294 0.3461314
  vertex -0.32375115 0.043516695 -0.24532291
  vertex -0.361871 0.043516487 0.34998277
 endloop
endfacet
facet normal -0.7450694 0.123820394 0.65539306
 outer loop
  vertex -0.35058016 0.13184294 0.3461314
  vertex -0.361871 0.043516487 0.34998277
  vertex -0.25829852 0.043516487 0.46772692
 endloop
endfacet
facet normal -0.7450691 0.12382117 0.65539336
 outer loop
  vertex -0.35058016 0.13184294 0.3461314
  vertex -0.25829852 0.043516487 0.46772692
  vertex -0.16487628 0.043516457 0.5739319
 endloop
endfacet
facet normal -0.063411504 0.1238256 0.99027586
 outer loop
  vertex 0.62357116 0.13184294 0.8247107
  vertex 0.037379026 0.13184288 0.7871744
  vertex 0.03211844 0.043516427 0.797882
 endloop
endfacet
facet normal -0.063411355 0.12382458 0.990276
 outer loop
  vertex 0.62357116 0.13184294 0.8247107
  vertex 0.03211844 0.043516427 0.797882
  vertex 0.6274229 0.043516487 0.83600175
 endloop
endfacet
facet normal 0.6553918 0.12382499 0.7450698
 outer loop
  vertex 1.064615 0.13184309 0.4367517
  vertex 0.62357116 0.13184294 0.8247107
  vertex 0.6274229 0.043516487 0.83600175
 endloop
endfacet
facet normal 0.65539247 0.12382146 0.74506974
 outer loop
  vertex 1.064615 0.13184309 0.4367517
  vertex 0.6274229 0.043516487 0.83600175
  vertex 1.0753224 0.043516636 0.44201183
 endloop
endfacet
facet normal 0.9902763 0.12382258 0.06341019
 outer loop
  vertex 1.1021506 0.1318433 -0.14944097
  vertex 1.064615 0.13184309 0.4367517
  vertex 1.0753224 0.043516636 0.44201183
 endloop
endfacet
facet normal 0.99027485 0.123833254 0.06341172
 outer loop
  vertex 1.1021506 0.1318433 -0.14944097
  vertex 1.0753224 0.043516636 0.44201183
  vertex 1.1134424 0.043516845 -0.15329346
 endloop
endfacet
facet normal 0.7450682 0.12383712 -0.6553913
 outer loop
  vertex 1.1021506 0.1318433 -0.14944097
  vertex 1.1134424 0.043516845 -0.15329346
  vertex 1.00987 0.043516874 -0.2710376
 endloop
endfacet
facet normal 0.74506944 0.12383476 -0.6553904
 outer loop
  vertex 1.1021506 0.1318433 -0.14944097
  vertex 1.00987 0.043516874 -0.2710376
  vertex 0.91644794 0.043516874 -0.37724295
 endloop
endfacet
facet normal 0.06341374 0.12384538 -0.9902732
 outer loop
  vertex 0.1279999 0.1318433 -0.6280204
  vertex 0.7141918 0.13184336 -0.59048265
  vertex 0.7194532 0.043516904 -0.601192
 endloop
endfacet
facet normal 0.06341222 0.12383473 -0.99027467
 outer loop
  vertex 0.1279999 0.1318433 -0.6280204
  vertex 0.7194532 0.043516904 -0.601192
  vertex 0.12414855 0.043516845 -0.6393123
 endloop
endfacet
facet normal 0.06341299 0.12382996 -0.9902752
 outer loop
  vertex 0.14763027 0.5820131 -0.57047254
  vertex 0.15199333 0.68203986 -0.5576852
  vertex 0.6814239 0.68203986 -0.52378273
 endloop
endfacet
facet normal 0.06341338 0.123827964 -0.9902754
 outer loop
  vertex 0.14763027 0.5820131 -0.57047254
  vertex 0.6814239 0.68203986 -0.52378273
  vertex 0.687381 0.58201313 -0.535909
 endloop
endfacet
facet normal -0.6553924 0.123836316 -0.7450674
 outer loop
  vertex 0.15199333 0.68203986 -0.5576852
  vertex 0.14763027 0.5820131 -0.57047254
  vertex -0.2584688 0.58201295 -0.21325082
 endloop
endfacet
facet normal -0.6553918 0.12382681 -0.7450694
 outer loop
  vertex 0.15199333 0.68203986 -0.5576852
  vertex -0.2584688 0.58201295 -0.21325082
  vertex -0.24634272 0.6820397 -0.20729345
 endloop
endfacet
facet normal -0.99027556 0.12382641 -0.0634141
 outer loop
  vertex -0.24634272 0.6820397 -0.20729345
  vertex -0.2584688 0.58201295 -0.21325082
  vertex -0.29303265 0.5820128 0.32649836
 endloop
endfacet
facet normal -0.9902742 0.123838 -0.0634118
 outer loop
  vertex -0.24634272 0.6820397 -0.20729345
  vertex -0.29303265 0.5820128 0.32649836
  vertex -0.2802446 0.6820395 0.32213682
 endloop
endfacet
facet normal -0.7450691 0.12383191 0.65539134
 outer loop
  vertex -0.2802446 0.6820395 0.32213682
  vertex -0.29303265 0.5820128 0.32649836
  vertex 0.06419009 0.5820127 0.73260015
 endloop
endfacet
facet normal -0.7450713 0.1238215 0.65539074
 outer loop
  vertex -0.2802446 0.6820395 0.32213682
  vertex 0.06419009 0.5820127 0.73260015
  vertex 0.07014701 0.68203944 0.72047436
 endloop
endfacet
facet normal -0.063409925 0.12382301 0.9902762
 outer loop
  vertex 0.07014701 0.68203944 0.72047436
  vertex 0.06419009 0.5820127 0.73260015
  vertex 0.60394025 0.5820128 0.7671617
 endloop
endfacet
facet normal -0.06340915 0.12382697 0.99027586
 outer loop
  vertex 0.07014701 0.68203944 0.72047436
  vertex 0.60394025 0.5820128 0.7671617
  vertex 0.59957755 0.6820395 0.75437474
 endloop
endfacet
facet normal 0.6553915 0.12383153 0.74506897
 outer loop
  vertex 0.59957755 0.6820395 0.75437474
  vertex 0.60394025 0.5820128 0.7671617
  vertex 1.0100402 0.5820129 0.4099405
 endloop
endfacet
facet normal 0.65539145 0.12383119 0.745069
 outer loop
  vertex 0.59957755 0.6820395 0.75437474
  vertex 1.0100402 0.5820129 0.4099405
  vertex 0.9979136 0.6820396 0.40398297
 endloop
endfacet
facet normal 0.99027514 0.12383102 0.06341138
 outer loop
  vertex 0.9979136 0.6820396 0.40398297
  vertex 1.0100402 0.5820129 0.4099405
  vertex 1.0446025 0.5820131 -0.12980893
 endloop
endfacet
facet normal 0.99027544 0.12382868 0.06341185
 outer loop
  vertex 0.9979136 0.6820396 0.40398297
  vertex 1.0446025 0.5820131 -0.12980893
  vertex 1.0318154 0.6820398 -0.12544733
 endloop
endfacet
facet normal 0.74506944 0.12382529 -0.65539217
 outer loop
  vertex 1.0318154 0.6820398 -0.12544733
  vertex 1.0446025 0.5820131 -0.12980893
  vertex 0.687381 0.58201313 -0.535909
 endloop
endfacet
facet normal 0.7450692 0.123826236 -0.6553922
 outer loop
  vertex 1.0318154 0.6820398 -0.12544733
  vertex 0.687381 0.58201313 -0.535909
  vertex 0.6814239 0.68203986 -0.52378273
 endloop
endfacet
facet normal -0.6558948 0.11754978 -0.7456434
 outer loop
  vertex 0.18212421 1.1322095 -0.4693571
  vertex 0.16350266 0.68203986 -0.5239456
  vertex -0.21434754 0.6820397 -0.19157499
 endloop
endfacet
facet normal -0.655894 0.11754856 -0.7456443
 outer loop
  vertex 0.18212421 1.1322095 -0.4693571
  vertex -0.21434754 0.6820397 -0.19157499
  vertex -0.16258061 1.1322095 -0.16614303
 endloop
endfacet
facet normal -0.6558953 0.11754873 -0.7456431
 outer loop
  vertex 0.15936387 0.5820131 -0.5360751
  vertex 0.14074278 0.1318433 -0.59066343
  vertex -0.27761734 0.13184312 -0.22265843
 endloop
endfacet
facet normal -0.65589595 0.117549986 -0.7456423
 outer loop
  vertex 0.15936387 0.5820131 -0.5360751
  vertex -0.27761734 0.13184312 -0.22265843
  vertex -0.22585005 0.58201295 -0.19722599
 endloop
endfacet
facet normal -0.99103737 0.11754873 -0.06346072
 outer loop
  vertex -0.16258061 1.1322095 -0.16614303
  vertex -0.21434754 0.6820397 -0.19157499
  vertex -0.24650598 0.6820395 0.31062832
 endloop
endfacet
facet normal -0.9910373 0.11754881 -0.06346064
 outer loop
  vertex -0.16258061 1.1322095 -0.16614303
  vertex -0.24650598 0.6820395 0.31062832
  vertex -0.19191813 1.1322093 0.29200792
 endloop
endfacet
facet normal -0.9910372 0.117549635 -0.06346195
 outer loop
  vertex -0.22585005 0.58201295 -0.19722599
  vertex -0.27761734 0.13184312 -0.22265843
  vertex -0.31322432 0.13184297 0.33338857
 endloop
endfacet
facet normal -0.9910371 0.11755083 -0.06346093
 outer loop
  vertex -0.22585005 0.58201295 -0.19722599
  vertex -0.31322432 0.13184297 0.33338857
  vertex -0.25863534 0.5820128 0.31476498
 endloop
endfacet
facet normal -0.7456435 0.11754698 0.65589523
 outer loop
  vertex -0.19191813 1.1322093 0.29200792
  vertex -0.24650598 0.6820395 0.31062832
  vertex 0.08586547 0.68203944 0.68847924
 endloop
endfacet
facet normal -0.7456417 0.11754953 0.65589684
 outer loop
  vertex -0.19191813 1.1322093 0.29200792
  vertex 0.08586547 0.68203944 0.68847924
  vertex 0.1112977 1.1322093 0.6367121
 endloop
endfacet
facet normal -0.7456418 0.11755333 0.6558959
 outer loop
  vertex -0.25863534 0.5820128 0.31476498
  vertex -0.31322432 0.13184297 0.33338857
  vertex 0.05478248 0.13184288 0.7517496
 endloop
endfacet
facet normal -0.7456433 0.11755103 0.65589464
 outer loop
  vertex -0.25863534 0.5820128 0.31476498
  vertex 0.05478248 0.13184288 0.7517496
  vertex 0.08021471 0.5820127 0.6999813
 endloop
endfacet
facet normal -0.06345889 0.11754919 0.99103737
 outer loop
  vertex 0.1112977 1.1322093 0.6367121
  vertex 0.08586547 0.68203944 0.68847924
  vertex 0.58806795 0.6820395 0.72063667
 endloop
endfacet
facet normal -0.06346081 0.11754719 0.9910375
 outer loop
  vertex 0.1112977 1.1322093 0.6367121
  vertex 0.58806795 0.6820395 0.72063667
  vertex 0.56944525 1.1322093 0.6660494
 endloop
endfacet
facet normal -0.06345993 0.117551714 0.9910371
 outer loop
  vertex 0.08021471 0.5820127 0.6999813
  vertex 0.05478248 0.13184288 0.7517496
  vertex 0.61082697 0.13184297 0.78735524
 endloop
endfacet
facet normal -0.06345867 0.117553174 0.9910369
 outer loop
  vertex 0.08021471 0.5820127 0.6999813
  vertex 0.61082697 0.13184297 0.78735524
  vertex 0.5922066 0.5820128 0.73276544
 endloop
endfacet
facet normal 0.65589625 0.11754922 0.7456422
 outer loop
  vertex 0.56944525 1.1322093 0.6660494
  vertex 0.58806795 0.6820395 0.72063667
  vertex 0.9659184 0.6820396 0.3882645
 endloop
endfacet
facet normal 0.65589577 0.1175486 0.74564266
 outer loop
  vertex 0.56944525 1.1322093 0.6660494
  vertex 0.9659184 0.6820396 0.3882645
  vertex 0.9141515 1.1322095 0.36283258
 endloop
endfacet
facet normal 0.6558961 0.11755007 0.7456421
 outer loop
  vertex 0.5922066 0.5820128 0.73276544
  vertex 0.61082697 0.13184297 0.78735524
  vertex 1.0291889 0.13184312 0.4193476
 endloop
endfacet
facet normal 0.6558965 0.11755058 0.74564177
 outer loop
  vertex 0.5922066 0.5820128 0.73276544
  vertex 1.0291889 0.13184312 0.4193476
  vertex 0.9774211 0.5820129 0.39391527
 endloop
endfacet
facet normal 0.9910373 0.11754874 0.06346147
 outer loop
  vertex 0.9141515 1.1322095 0.36283258
  vertex 0.9659184 0.6820396 0.3882645
  vertex 0.9980771 0.6820398 -0.11393734
 endloop
endfacet
facet normal 0.99103725 0.117550574 0.06345973
 outer loop
  vertex 0.9141515 1.1322095 0.36283258
  vertex 0.9980771 0.6820398 -0.11393734
  vertex 0.94348836 1.1322095 -0.09531518
 endloop
endfacet
facet normal 0.9910373 0.11755058 0.06345979
 outer loop
  vertex 0.9774211 0.5820129 0.39391527
  vertex 1.0291889 0.13184312 0.4193476
  vertex 1.0647944 0.1318433 -0.13669664
 endloop
endfacet
facet normal 0.9910372 0.117550425 0.0634599
 outer loop
  vertex 0.9774211 0.5820129 0.39391527
  vertex 1.0647944 0.1318433 -0.13669664
  vertex 1.0102057 0.5820131 -0.118074514
 endloop
endfacet
facet normal 0.74564123 0.11755083 -0.6558971
 outer loop
  vertex 0.94348836 1.1322095 -0.09531518
  vertex 0.9980771 0.6820398 -0.11393734
  vertex 0.66570497 0.68203986 -0.4917868
 endloop
endfacet
facet normal 0.7456424 0.117549114 -0.65589595
 outer loop
  vertex 0.94348836 1.1322095 -0.09531518
  vertex 0.66570497 0.68203986 -0.4917868
  vertex 0.64027286 1.1322097 -0.44001976
 endloop
endfacet
facet normal 0.7456413 0.11755068 -0.65589696
 outer loop
  vertex 1.0102057 0.5820131 -0.118074514
  vertex 1.0647944 0.1318433 -0.13669664
  vertex 0.6967877 0.13184336 -0.5550565
 endloop
endfacet
facet normal 0.74564254 0.1175488 -0.65589595
 outer loop
  vertex 1.0102057 0.5820131 -0.118074514
  vertex 0.6967877 0.13184336 -0.5550565
  vertex 0.67135596 0.58201313 -0.5032893
 endloop
endfacet
facet normal 0.06346186 0.1175497 -0.9910372
 outer loop
  vertex 0.14074278 0.1318433 -0.59066343
  vertex 0.15936387 0.5820131 -0.5360751
  vertex 0.67135596 0.58201313 -0.5032893
 endloop
endfacet
facet normal 0.06346209 0.117549434 -0.9910372
 outer loop
  vertex 0.14074278 0.1318433 -0.59066343
  vertex 0.67135596 0.58201313 -0.5032893
  vertex 0.6967877 0.13184336 -0.5550565
 endloop
endfacet
facet normal 0.063460596 0.11755018 -0.9910372
 outer loop
  vertex 0.16350266 0.68203986 -0.5239456
  vertex 0.18212421 1.1322095 -0.4693571
  vertex 0.64027286 1.1322097 -0.44001976
 endloop
endfacet
facet normal 0.06346165 0.11754906 -0.99103725
 outer loop
  vertex 0.16350266 0.68203986 -0.5239456
  vertex 0.64027286 1.1322097 -0.44001976
  vertex 0.66570497 0.68203986 -0.4917868
 endloop
endfacet
facet normal 1.196983e-07 -1 -2.2089836e-07
 outer loop
  vertex 0.13709009 0.043516845 -0.60137576
  vertex 0.7017793 0.043516904 -0.5652157
  vertex 0.6494335 0.043516874 -0.45866618
 endloop
endfacet
facet normal 1.4591677e-07 -1 -3.150256e-07
 outer loop
  vertex 0.13709009 0.043516845 -0.60137576
  vertex 0.6494335 0.043516874 -0.45866618
  vertex 0.17541723 0.043516815 -0.48902014
 endloop
endfacet
facet normal 2.0402695e-07 -1 -1.7946998e-07
 outer loop
  vertex 1.075506 0.043516845 -0.14035192
  vertex 0.9631506 0.043516815 -0.102023475
  vertex 0.9820648 0.043516845 -0.24657872
 endloop
endfacet
facet normal 1.5082293e-07 -1 -3.0700087e-07
 outer loop
  vertex 1.075506 0.043516845 -0.14035192
  vertex 1.0393457 0.043516666 0.42433748
  vertex 0.9327969 0.043516666 0.37199232
 endloop
endfacet
facet normal 1.6153982e-07 -1 -3.0401577e-07
 outer loop
  vertex 1.075506 0.043516845 -0.14035192
  vertex 0.9327969 0.043516666 0.37199232
  vertex 0.9631506 0.043516815 -0.102023475
 endloop
endfacet
facet normal 9.0304276e-08 -1 -2.9605766e-07
 outer loop
  vertex 1.0393457 0.043516666 0.42433748
  vertex 0.61448246 0.043516517 0.7980641
  vertex 0.5761539 0.043516546 0.6857091
 endloop
endfacet
facet normal 1.1978241e-07 -1 -2.4381777e-07
 outer loop
  vertex 1.0393457 0.043516666 0.42433748
  vertex 0.5761539 0.043516546 0.6857091
  vertex 0.9327969 0.043516666 0.37199232
 endloop
endfacet
facet normal 1.8822828e-07 -1 -4.6693688e-07
 outer loop
  vertex 0.61448246 0.043516517 0.7980641
  vertex 0.04979238 0.043516427 0.7619057
  vertex 0.10213798 0.043516487 0.6553566
 endloop
endfacet
facet normal 1.4591613e-07 -1 -3.1502898e-07
 outer loop
  vertex 0.61448246 0.043516517 0.7980641
  vertex 0.10213798 0.043516487 0.6553566
  vertex 0.5761539 0.043516546 0.6857091
 endloop
endfacet
facet normal 2.0341143e-07 -1 -4.5947766e-07
 outer loop
  vertex 0.10213798 0.043516487 0.6553566
  vertex 0.04979238 0.043516427 0.7619057
  vertex -0.043648303 0.043516457 0.6556781
 endloop
endfacet
facet normal 1.2568594e-07 -1 -2.5583455e-07
 outer loop
  vertex -0.3239336 0.043516517 0.33704063
  vertex -0.28777468 0.043516666 -0.22764835
  vertex -0.18122542 0.043516666 -0.17530301
 endloop
endfacet
facet normal -1.0963295e-07 -1 -3.2138024e-07
 outer loop
  vertex -0.3239336 0.043516517 0.33704063
  vertex -0.18122542 0.043516666 -0.17530301
  vertex -0.21157861 0.043516517 0.29871282
 endloop
endfacet
facet normal 1.4426084e-07 -1 -3.144607e-07
 outer loop
  vertex -0.28777468 0.043516666 -0.22764835
  vertex 0.13709009 0.043516845 -0.60137576
  vertex 0.17541723 0.043516815 -0.48902014
 endloop
endfacet
facet normal 1.497279e-07 -1 -3.0477216e-07
 outer loop
  vertex -0.28777468 0.043516666 -0.22764835
  vertex 0.17541723 0.043516815 -0.48902014
  vertex -0.18122542 0.043516666 -0.17530301
 endloop
endfacet
facet normal -0.063728176 -0.074297525 0.9951977
 outer loop
  vertex 0.17541723 0.043516815 -0.48902014
  vertex 0.6494335 0.043516874 -0.45866618
  vertex 0.6106563 1.1340382 -0.3797353
 endloop
endfacet
facet normal -0.06372653 -0.074298196 0.99519783
 outer loop
  vertex 0.17541723 0.043516815 -0.48902014
  vertex 0.6106563 1.1340382 -0.3797353
  vertex 0.20381066 1.1340382 -0.40578726
 endloop
endfacet
facet normal -0.7487736 -0.074297145 0.6586487
 outer loop
  vertex 0.6494335 0.043516874 -0.45866618
  vertex 0.8062915 0.043516845 -0.2803448
  vertex 0.74528706 1.1340382 -0.22668329
 endloop
endfacet
facet normal -0.74877214 -0.07429759 0.6586503
 outer loop
  vertex 0.6494335 0.043516874 -0.45866618
  vertex 0.74528706 1.1340382 -0.22668329
  vertex 0.6106563 1.1340382 -0.3797353
 endloop
endfacet
facet normal -0.9951977 -0.074298136 -0.06372777
 outer loop
  vertex 0.9631506 0.043516815 -0.102023475
  vertex 0.9327969 0.043516666 0.37199232
  vertex 0.8538653 1.134038 0.3332152
 endloop
endfacet
facet normal -0.99519783 -0.07429866 -0.06372651
 outer loop
  vertex 0.9631506 0.043516815 -0.102023475
  vertex 0.8538653 1.134038 0.3332152
  vertex 0.87991726 1.1340382 -0.07363043
 endloop
endfacet
facet normal -0.6586493 -0.07429707 -0.74877304
 outer loop
  vertex 0.9327969 0.043516666 0.37199232
  vertex 0.5761539 0.043516546 0.6857091
  vertex 0.5477608 1.134038 0.60247767
 endloop
endfacet
facet normal -0.658651 -0.074297994 -0.7487714
 outer loop
  vertex 0.9327969 0.043516666 0.37199232
  vertex 0.5477608 1.134038 0.60247767
  vertex 0.8538653 1.134038 0.3332152
 endloop
endfacet
facet normal 0.06372525 -0.074298024 -0.99519795
 outer loop
  vertex 0.5761539 0.043516546 0.6857091
  vertex 0.10213798 0.043516487 0.6553566
  vertex 0.14091548 1.1340379 0.5764251
 endloop
endfacet
facet normal 0.06372814 -0.07429686 -0.99519783
 outer loop
  vertex 0.5761539 0.043516546 0.6857091
  vertex 0.14091548 1.1340379 0.5764251
  vertex 0.5477608 1.134038 0.60247767
 endloop
endfacet
facet normal 0.7487741 -0.07429742 -0.6586479
 outer loop
  vertex 0.10213798 0.043516487 0.6553566
  vertex -0.054720283 0.043516487 0.4770346
  vertex 0.006284386 1.1340379 0.42337283
 endloop
endfacet
facet normal 0.7487717 -0.07429822 -0.6586507
 outer loop
  vertex 0.10213798 0.043516487 0.6553566
  vertex 0.006284386 1.1340379 0.42337283
  vertex 0.14091548 1.1340379 0.5764251
 endloop
endfacet
facet normal 0.99519783 -0.07429751 0.0637266
 outer loop
  vertex -0.21157861 0.043516517 0.29871282
  vertex -0.18122542 0.043516666 -0.17530301
  vertex -0.102294505 1.134038 -0.13652563
 endloop
endfacet
facet normal 0.99519783 -0.074297324 0.063727096
 outer loop
  vertex -0.21157861 0.043516517 0.29871282
  vertex -0.102294505 1.134038 -0.13652563
  vertex -0.12834674 1.134038 0.27032062
 endloop
endfacet
facet normal 0.65865004 -0.07429823 0.7487723
 outer loop
  vertex -0.18122542 0.043516666 -0.17530301
  vertex 0.17541723 0.043516815 -0.48902014
  vertex 0.20381066 1.1340382 -0.40578726
 endloop
endfacet
facet normal 0.6586491 -0.07429771 0.74877316
 outer loop
  vertex -0.18122542 0.043516666 -0.17530301
  vertex 0.20381066 1.1340382 -0.40578726
  vertex -0.102294505 1.134038 -0.13652563
 endloop
endfacet
facet normal -2.5711273e-07 1 -1.2631475e-07
 outer loop
  vertex 0.18577754 1.2205356 -0.45864603
  vertex 0.6352825 1.2205358 -0.42986205
  vertex 0.64935213 1.2205358 -0.45850065
 endloop
endfacet
facet normal -2.5717983e-07 1 8.772782e-08
 outer loop
  vertex 0.18577754 1.2205356 -0.45864603
  vertex 0.64935213 1.2205358 -0.45850065
  vertex 0.1754761 1.2205356 -0.48884538
 endloop
endfacet
facet normal 2.660084e-07 -1 -9.0741466e-08
 outer loop
  vertex 0.64027286 1.1322097 -0.44001976
  vertex 0.18212421 1.1322095 -0.4693571
  vertex 0.17162475 1.1322095 -0.50013626
 endloop
endfacet
facet normal 2.3928845e-07 -1 1.1755852e-07
 outer loop
  vertex 0.64027286 1.1322097 -0.44001976
  vertex 0.17162475 1.1322095 -0.50013626
  vertex 0.65461314 1.1322097 -0.46920916
 endloop
endfacet
facet normal 9.2497295e-08 1 2.711161e-07
 outer loop
  vertex 0.6352825 1.2205358 -0.42986205
  vertex 0.93277735 1.2205356 -0.091660745
  vertex 0.9629759 1.2205356 -0.10196366
 endloop
endfacet
facet normal 2.4388962e-07 1 1.1981847e-07
 outer loop
  vertex 0.6352825 1.2205358 -0.42986205
  vertex 0.9629759 1.2205356 -0.10196366
  vertex 0.64935213 1.2205358 -0.45850065
 endloop
endfacet
facet normal -2.5226103e-07 -1 -1.2393174e-07
 outer loop
  vertex 0.94348836 1.1322095 -0.09531518
  vertex 0.64027286 1.1322097 -0.44001976
  vertex 0.65461314 1.1322097 -0.46920916
 endloop
endfacet
facet normal -8.60796e-08 -1 -2.5232558e-07
 outer loop
  vertex 0.94348836 1.1322095 -0.09531518
  vertex 0.65461314 1.1322097 -0.46920916
  vertex 0.97426736 1.1322095 -0.105815284
 endloop
endfacet
facet normal -1.2631475e-07 1 2.5711395e-07
 outer loop
  vertex 0.93277735 1.2205356 -0.091660745
  vertex 0.9039947 1.2205355 0.35784274
  vertex 0.93263245 1.2205355 0.37191188
 endloop
endfacet
facet normal 8.7743096e-08 1 2.5718083e-07
 outer loop
  vertex 0.93277735 1.2205356 -0.091660745
  vertex 0.93263245 1.2205355 0.37191188
  vertex 0.9629759 1.2205356 -0.10196366
 endloop
endfacet
facet normal 0 -1 0
 outer loop
  vertex 0.9141515 1.1322095 0.36283258
  vertex 0.94348836 1.1322095 -0.09531518
  vertex 0.97426736 1.1322095 -0.105815284
 endloop
endfacet
facet normal -0 -1 -0
 outer loop
  vertex 0.9141515 1.1322095 0.36283258
  vertex 0.97426736 1.1322095 -0.105815284
  vertex 0.94333977 1.1322095 0.377172
 endloop
endfacet
facet normal -5.4224984e-07 1 1.849726e-07
 outer loop
  vertex 0.9039947 1.2205355 0.35784274
  vertex 0.56579274 1.2205353 0.6553389
  vertex 0.57609385 1.2205353 0.68553674
 endloop
endfacet
facet normal -2.3963534e-07 1 4.8777827e-07
 outer loop
  vertex 0.9039947 1.2205355 0.35784274
  vertex 0.57609385 1.2205353 0.68553674
  vertex 0.93263245 1.2205355 0.37191188
 endloop
endfacet
facet normal 2.4785894e-07 -1 -5.045236e-07
 outer loop
  vertex 0.56944525 1.1322093 0.6660494
  vertex 0.9141515 1.1322095 0.36283258
  vertex 0.94333977 1.1322095 0.377172
 endloop
endfacet
facet normal 5.04648e-07 -1 -1.7216094e-07
 outer loop
  vertex 0.56944525 1.1322093 0.6660494
  vertex 0.94333977 1.1322095 0.377172
  vertex 0.57994545 1.1322093 0.6968282
 endloop
endfacet
facet normal -0 1 0
 outer loop
  vertex 0.56579274 1.2205353 0.6553389
  vertex 0.11628756 1.2205353 0.62655526
  vertex 0.10221842 1.2205353 0.65519303
 endloop
endfacet
facet normal -0 1 0
 outer loop
  vertex 0.56579274 1.2205353 0.6553389
  vertex 0.10221842 1.2205353 0.65519303
  vertex 0.57609385 1.2205353 0.68553674
 endloop
endfacet
facet normal 0 -1 0
 outer loop
  vertex 0.1112977 1.1322093 0.6367121
  vertex 0.56944525 1.1322093 0.6660494
  vertex 0.57994545 1.1322093 0.6968282
 endloop
endfacet
facet normal 0 -1 -0
 outer loop
  vertex 0.1112977 1.1322093 0.6367121
  vertex 0.57994545 1.1322093 0.6968282
  vertex 0.09695807 1.1322093 0.66590023
 endloop
endfacet
facet normal -0 1 0
 outer loop
  vertex 0.11628756 1.2205353 0.62655526
  vertex -0.18120766 1.2205353 0.28835353
  vertex -0.21140587 1.2205353 0.298655
 endloop
endfacet
facet normal -0 1 0
 outer loop
  vertex 0.11628756 1.2205353 0.62655526
  vertex -0.21140587 1.2205353 0.298655
  vertex 0.10221842 1.2205353 0.65519303
 endloop
endfacet
facet normal 0 -1 -0
 outer loop
  vertex -0.19191813 1.1322093 0.29200792
  vertex 0.1112977 1.1322093 0.6367121
  vertex 0.09695807 1.1322093 0.66590023
 endloop
endfacet
facet normal 0 -1 -0
 outer loop
  vertex -0.19191813 1.1322093 0.29200792
  vertex 0.09695807 1.1322093 0.66590023
  vertex -0.22269666 1.1322093 0.3025072
 endloop
endfacet
facet normal -2.5262744e-07 1 5.1422376e-07
 outer loop
  vertex -0.18120766 1.2205353 0.28835353
  vertex -0.1524229 1.2205355 -0.16115269
  vertex -0.18106067 1.2205355 -0.17522183
 endloop
endfacet
facet normal 1.7546265e-07 1 5.1435944e-07
 outer loop
  vertex -0.18120766 1.2205353 0.28835353
  vertex -0.18106067 1.2205355 -0.17522183
  vertex -0.21140587 1.2205353 0.298655
 endloop
endfacet
facet normal -1.8148238e-07 -1 -5.320142e-07
 outer loop
  vertex -0.16258061 1.1322095 -0.16614303
  vertex -0.19191813 1.1322093 0.29200792
  vertex -0.22269666 1.1322093 0.3025072
 endloop
endfacet
facet normal 2.3511193e-07 -1 -4.7857566e-07
 outer loop
  vertex -0.16258061 1.1322095 -0.16614303
  vertex -0.22269666 1.1322093 0.3025072
  vertex -0.19176924 1.1322095 -0.18048266
 endloop
endfacet
facet normal -2.711275e-07 1 9.248557e-08
 outer loop
  vertex -0.1524229 1.2205355 -0.16115269
  vertex 0.18577754 1.2205356 -0.45864603
  vertex 0.1754761 1.2205356 -0.48884538
 endloop
endfacet
facet normal -1.1981817e-07 1 2.4389018e-07
 outer loop
  vertex -0.1524229 1.2205355 -0.16115269
  vertex 0.1754761 1.2205356 -0.48884538
  vertex -0.18106067 1.2205355 -0.17522183
 endloop
endfacet
facet normal 0 -1 0
 outer loop
  vertex 0.18212421 1.1322095 -0.4693571
  vertex -0.16258061 1.1322095 -0.16614303
  vertex -0.19176924 1.1322095 -0.18048266
 endloop
endfacet
facet normal 0 -1 0
 outer loop
  vertex 0.18212421 1.1322095 -0.4693571
  vertex -0.19176924 1.1322095 -0.18048266
  vertex 0.17162475 1.1322095 -0.50013626
 endloop
endfacet
facet normal -3.2876815e-07 1 1.1214646e-07
 outer loop
  vertex -0.27761734 0.13184312 -0.22265843
  vertex 0.14074278 0.1318433 -0.59066343
  vertex 0.1279999 0.1318433 -0.6280204
 endloop
endfacet
facet normal 4.18715e-07 1 8.601002e-07
 outer loop
  vertex -0.27761734 0.13184312 -0.22265843
  vertex 0.1279999 0.1318433 -0.6280204
  vertex -0.313043 0.13184315 -0.2400623
 endloop
endfacet
facet normal -3.8070166e-07 -1 -9.112542e-07
 outer loop
  vertex 0.13709009 0.043516845 -0.60137576
  vertex -0.28777468 0.043516666 -0.22764835
  vertex -0.32375115 0.043516695 -0.24532291
 endloop
endfacet
facet normal 2.5590023e-07 -1 -8.7296605e-08
 outer loop
  vertex 0.13709009 0.043516845 -0.60137576
  vertex -0.32375115 0.043516695 -0.24532291
  vertex 0.12414855 0.043516845 -0.6393123
 endloop
endfacet
facet normal 6.879658e-07 1 3.1203837e-07
 outer loop
  vertex -0.31322432 0.13184297 0.33338857
  vertex -0.27761734 0.13184312 -0.22265843
  vertex -0.313043 0.13184315 -0.2400623
 endloop
endfacet
facet normal -6.915016e-07 1 3.116022e-07
 outer loop
  vertex -0.31322432 0.13184297 0.33338857
  vertex -0.313043 0.13184315 -0.2400623
  vertex -0.35058016 0.13184294 0.3461314
 endloop
endfacet
facet normal 7.110768e-07 -1 -2.1835e-07
 outer loop
  vertex -0.28777468 0.043516666 -0.22764835
  vertex -0.3239336 0.043516517 0.33704063
  vertex -0.361871 0.043516487 0.34998277
 endloop
endfacet
facet normal -6.362072e-07 -1 -3.9117444e-07
 outer loop
  vertex -0.28777468 0.043516666 -0.22764835
  vertex -0.361871 0.043516487 0.34998277
  vertex -0.32375115 0.043516695 -0.24532291
 endloop
endfacet
facet normal -5.575848e-07 1 7.041812e-07
 outer loop
  vertex 0.05478248 0.13184288 0.7517496
  vertex -0.31322432 0.13184297 0.33338857
  vertex -0.35058016 0.13184294 0.3461314
 endloop
endfacet
facet normal 9.857975e-08 1 4.84301e-08
 outer loop
  vertex 0.05478248 0.13184288 0.7517496
  vertex -0.35058016 0.13184294 0.3461314
  vertex 0.037379026 0.13184288 0.7871744
 endloop
endfacet
facet normal 4.6513193e-07 -1 -6.8969405e-07
 outer loop
  vertex -0.07145396 0.043516427 0.6801368
  vertex -0.043648303 0.043516457 0.6556781
  vertex 0.04979238 0.043516427 0.7619057
 endloop
endfacet
facet normal 0 -1 -0
 outer loop
  vertex -0.07145396 0.043516427 0.6801368
  vertex 0.04979238 0.043516427 0.7619057
  vertex 0.03211844 0.043516427 0.797882
 endloop
endfacet
facet normal -1.5588708e-07 1 -7.658396e-08
 outer loop
  vertex 0.61082697 0.13184297 0.78735524
  vertex 0.05478248 0.13184288 0.7517496
  vertex 0.037379026 0.13184288 0.7871744
 endloop
endfacet
facet normal -1.5617961e-07 1 8.5108536e-07
 outer loop
  vertex 0.61082697 0.13184297 0.78735524
  vertex 0.037379026 0.13184288 0.7871744
  vertex 0.62357116 0.13184294 0.8247107
 endloop
endfacet
facet normal 2.13289e-07 -1 -8.583133e-07
 outer loop
  vertex 0.04979238 0.043516427 0.7619057
  vertex 0.61448246 0.043516517 0.7980641
  vertex 0.6274229 0.043516487 0.83600175
 endloop
endfacet
facet normal 9.7071e-08 -1 4.768779e-08
 outer loop
  vertex 0.04979238 0.043516427 0.7619057
  vertex 0.6274229 0.043516487 0.83600175
  vertex 0.03211844 0.043516427 0.797882
 endloop
endfacet
facet normal 2.6582651e-07 1 7.071139e-07
 outer loop
  vertex 1.0291889 0.13184312 0.4193476
  vertex 0.61082697 0.13184297 0.78735524
  vertex 0.62357116 0.13184294 0.8247107
 endloop
endfacet
facet normal 4.1870825e-07 1 8.600917e-07
 outer loop
  vertex 1.0291889 0.13184312 0.4193476
  vertex 0.62357116 0.13184294 0.8247107
  vertex 1.064615 0.13184309 0.4367517
 endloop
endfacet
facet normal -4.0584075e-07 -1 -8.6008976e-07
 outer loop
  vertex 0.61448246 0.043516517 0.7980641
  vertex 1.0393457 0.043516666 0.42433748
  vertex 1.0753224 0.043516636 0.44201183
 endloop
endfacet
facet normal -2.7562174e-07 -1 -6.9154686e-07
 outer loop
  vertex 0.61448246 0.043516517 0.7980641
  vertex 1.0753224 0.043516636 0.44201183
  vertex 0.6274229 0.043516487 0.83600175
 endloop
endfacet
facet normal 6.624272e-07 1 3.6399987e-07
 outer loop
  vertex 1.0647944 0.1318433 -0.13669664
  vertex 1.0291889 0.13184312 0.4193476
  vertex 1.064615 0.13184309 0.4367517
 endloop
endfacet
facet normal 1.2412414e-07 1 3.6383145e-07
 outer loop
  vertex 1.0647944 0.1318433 -0.13669664
  vertex 1.064615 0.13184309 0.4367517
  vertex 1.1021506 0.1318433 -0.14944097
 endloop
endfacet
facet normal -1.10436666e-07 -1 -3.237308e-07
 outer loop
  vertex 1.0393457 0.043516666 0.42433748
  vertex 1.075506 0.043516845 -0.14035192
  vertex 1.1134424 0.043516845 -0.15329346
 endloop
endfacet
facet normal -6.362056e-07 -1 -3.9117478e-07
 outer loop
  vertex 1.0393457 0.043516666 0.42433748
  vertex 1.1134424 0.043516845 -0.15329346
  vertex 1.0753224 0.043516636 0.44201183
 endloop
endfacet
facet normal 3.7386066e-08 1 1.0958585e-07
 outer loop
  vertex 0.6967877 0.13184336 -0.5550565
  vertex 1.0647944 0.1318433 -0.13669664
  vertex 1.1021506 0.1318433 -0.14944097
 endloop
endfacet
facet normal 9.8579896e-08 1 4.8430124e-08
 outer loop
  vertex 0.6967877 0.13184336 -0.5550565
  vertex 1.1021506 0.1318433 -0.14944097
  vertex 0.7141918 0.13184336 -0.59048265
 endloop
endfacet
facet normal 6.0426146e-07 -1 -5.3153167e-07
 outer loop
  vertex 1.075506 0.043516845 -0.14035192
  vertex 0.9820648 0.043516845 -0.24657872
  vertex 1.00987 0.043516874 -0.2710376
 endloop
endfacet
facet normal -6.6415694e-08 -1 -1.9468902e-07
 outer loop
  vertex 1.075506 0.043516845 -0.14035192
  vertex 1.00987 0.043516874 -0.2710376
  vertex 1.1134424 0.043516845 -0.15329346
 endloop
endfacet
facet normal -1.0392453e-07 1 -5.105582e-08
 outer loop
  vertex 0.14074278 0.1318433 -0.59066343
  vertex 0.6967877 0.13184336 -0.5550565
  vertex 0.7141918 0.13184336 -0.59048265
 endloop
endfacet
facet normal -1.0395179e-07 1 3.5459106e-08
 outer loop
  vertex 0.14074278 0.1318433 -0.59066343
  vertex 0.7141918 0.13184336 -0.59048265
  vertex 0.1279999 0.1318433 -0.6280204
 endloop
endfacet
facet normal 1.0791028e-07 -1 -3.681211e-08
 outer loop
  vertex 0.7017793 0.043516904 -0.5652157
  vertex 0.13709009 0.043516845 -0.60137576
  vertex 0.12414855 0.043516845 -0.6393123
 endloop
endfacet
facet normal 9.707093e-08 -1 4.7687596e-08
 outer loop
  vertex 0.7017793 0.043516904 -0.5652157
  vertex 0.12414855 0.043516845 -0.6393123
  vertex 0.7194532 0.043516904 -0.601192
 endloop
endfacet
facet normal 0 1 0
 outer loop
  vertex 0.16350266 0.68203986 -0.5239456
  vertex 0.66570497 0.68203986 -0.4917868
  vertex 0.6814239 0.68203986 -0.52378273
 endloop
endfacet
facet normal 0 1 -0
 outer loop
  vertex 0.16350266 0.68203986 -0.5239456
  vertex 0.6814239 0.68203986 -0.52378273
  vertex 0.15199333 0.68203986 -0.5576852
 endloop
endfacet
facet normal 1.19016896e-07 -1 -4.0598845e-08
 outer loop
  vertex 0.67135596 0.58201313 -0.5032893
  vertex 0.15936387 0.5820131 -0.5360751
  vertex 0.14763027 0.5820131 -0.57047254
 endloop
endfacet
facet normal 1.0706188e-07 -1 5.259622e-08
 outer loop
  vertex 0.67135596 0.58201313 -0.5032893
  vertex 0.14763027 0.5820131 -0.57047254
  vertex 0.687381 0.58201313 -0.535909
 endloop
endfacet
facet normal 1.10897936e-07 -1 -2.257343e-07
 outer loop
  vertex 0.15936387 0.5820131 -0.5360751
  vertex -0.22585005 0.58201295 -0.19722599
  vertex -0.2584688 0.58201295 -0.21325082
 endloop
endfacet
facet normal 2.2579488e-07 -1 -7.7022776e-08
 outer loop
  vertex 0.15936387 0.5820131 -0.5360751
  vertex -0.2584688 0.58201295 -0.21325082
  vertex 0.14763027 0.5820131 -0.57047254
 endloop
endfacet
facet normal -3.6401315e-07 1 1.2417311e-07
 outer loop
  vertex -0.21434754 0.6820397 -0.19157499
  vertex 0.16350266 0.68203986 -0.5239456
  vertex 0.15199333 0.68203986 -0.5576852
 endloop
endfacet
facet normal -1.6086697e-07 1 3.274473e-07
 outer loop
  vertex -0.21434754 0.6820397 -0.19157499
  vertex 0.15199333 0.68203986 -0.5576852
  vertex -0.24634272 0.6820397 -0.20729345
 endloop
endfacet
facet normal -1.2179498e-07 -1 -3.5705128e-07
 outer loop
  vertex -0.22585005 0.58201295 -0.19722599
  vertex -0.25863534 0.5820128 0.31476498
  vertex -0.29303265 0.5820128 0.32649836
 endloop
endfacet
facet normal 1.5779128e-07 -1 -3.2118635e-07
 outer loop
  vertex -0.22585005 0.58201295 -0.19722599
  vertex -0.29303265 0.5820128 0.32649836
  vertex -0.2584688 0.58201295 -0.21325082
 endloop
endfacet
facet normal -1.6958812e-07 1 3.4519934e-07
 outer loop
  vertex -0.24650598 0.6820395 0.31062832
  vertex -0.21434754 0.6820397 -0.19157499
  vertex -0.24634272 0.6820397 -0.20729345
 endloop
endfacet
facet normal 1.1778069e-07 1 3.4528992e-07
 outer loop
  vertex -0.24650598 0.6820395 0.31062832
  vertex -0.24634272 0.6820397 -0.20729345
  vertex -0.2802446 0.6820395 0.32213682
 endloop
endfacet
facet normal -1.1286737e-07 -1 -5.544815e-08
 outer loop
  vertex -0.25863534 0.5820128 0.31476498
  vertex 0.08021471 0.5820127 0.6999813
  vertex 0.06419009 0.5820127 0.73260015
 endloop
endfacet
facet normal -3.8510734e-08 -1 -1.1289714e-07
 outer loop
  vertex -0.25863534 0.5820128 0.31476498
  vertex 0.06419009 0.5820127 0.73260015
  vertex -0.29303265 0.5820128 0.32649836
 endloop
endfacet
facet normal 4.1389544e-08 1 1.213387e-07
 outer loop
  vertex 0.08586547 0.68203944 0.68847924
  vertex -0.24650598 0.6820395 0.31062832
  vertex -0.2802446 0.6820395 0.32213682
 endloop
endfacet
facet normal 1.091489e-07 1 5.3622326e-08
 outer loop
  vertex 0.08586547 0.68203944 0.68847924
  vertex -0.2802446 0.6820395 0.32213682
  vertex 0.07014701 0.68203944 0.72047436
 endloop
endfacet
facet normal 1.1901692e-07 -1 -4.0600394e-08
 outer loop
  vertex 0.08021471 0.5820127 0.6999813
  vertex 0.5922066 0.5820128 0.73276544
  vertex 0.60394025 0.5820128 0.7671617
 endloop
endfacet
facet normal 1.07062185e-07 -1 5.259635e-08
 outer loop
  vertex 0.08021471 0.5820127 0.6999813
  vertex 0.60394025 0.5820128 0.7671617
  vertex 0.06419009 0.5820127 0.73260015
 endloop
endfacet
facet normal -1.1506672e-07 1 -5.6529615e-08
 outer loop
  vertex 0.58806795 0.6820395 0.72063667
  vertex 0.08586547 0.68203944 0.68847924
  vertex 0.07014701 0.68203944 0.72047436
 endloop
endfacet
facet normal -1.1509674e-07 1 3.9264545e-08
 outer loop
  vertex 0.58806795 0.6820395 0.72063667
  vertex 0.07014701 0.68203944 0.72047436
  vertex 0.59957755 0.6820395 0.75437474
 endloop
endfacet
facet normal 1.1089886e-07 -1 -2.2573235e-07
 outer loop
  vertex 0.5922066 0.5820128 0.73276544
  vertex 0.9774211 0.5820129 0.39391527
  vertex 1.0100402 0.5820129 0.4099405
 endloop
endfacet
facet normal 2.2579263e-07 -1 -7.7024936e-08
 outer loop
  vertex 0.5922066 0.5820128 0.73276544
  vertex 1.0100402 0.5820129 0.4099405
  vertex 0.60394025 0.5820128 0.7671617
 endloop
endfacet
facet normal -2.4267126e-07 1 8.278624e-08
 outer loop
  vertex 0.9659184 0.6820396 0.3882645
  vertex 0.58806795 0.6820395 0.72063667
  vertex 0.59957755 0.6820395 0.75437474
 endloop
endfacet
facet normal -1.0724465e-07 1 2.1829821e-07
 outer loop
  vertex 0.9659184 0.6820396 0.3882645
  vertex 0.59957755 0.6820395 0.75437474
  vertex 0.9979136 0.6820396 0.40398297
 endloop
endfacet
facet normal -1.2180816e-07 -1 -3.5705276e-07
 outer loop
  vertex 0.9774211 0.5820129 0.39391527
  vertex 1.0102057 0.5820131 -0.118074514
  vertex 1.0446025 0.5820131 -0.12980893
 endloop
endfacet
facet normal 1.577942e-07 -1 -3.2118646e-07
 outer loop
  vertex 0.9774211 0.5820129 0.39391527
  vertex 1.0446025 0.5820131 -0.12980893
  vertex 1.0100402 0.5820129 0.4099405
 endloop
endfacet
facet normal -1.6958856e-07 1 3.4520022e-07
 outer loop
  vertex 0.9980771 0.6820398 -0.11393734
  vertex 0.9659184 0.6820396 0.3882645
  vertex 0.9979136 0.6820396 0.40398297
 endloop
endfacet
facet normal 1.17797114e-07 1 3.452909e-07
 outer loop
  vertex 0.9980771 0.6820398 -0.11393734
  vertex 0.9979136 0.6820396 0.40398297
  vertex 1.0318154 0.6820398 -0.12544733
 endloop
endfacet
facet normal -1.128675e-07 -1 -5.5448343e-08
 outer loop
  vertex 1.0102057 0.5820131 -0.118074514
  vertex 0.67135596 0.58201313 -0.5032893
  vertex 0.687381 0.58201313 -0.535909
 endloop
endfacet
facet normal -3.8513967e-08 -1 -1.12894824e-07
 outer loop
  vertex 1.0102057 0.5820131 -0.118074514
  vertex 0.687381 0.58201313 -0.535909
  vertex 1.0446025 0.5820131 -0.12980893
 endloop
endfacet
facet normal 4.1394074e-08 1 1.2133512e-07
 outer loop
  vertex 0.66570497 0.68203986 -0.4917868
  vertex 0.9980771 0.6820398 -0.11393734
  vertex 1.0318154 0.6820398 -0.12544733
 endloop
endfacet
facet normal 1.0914895e-07 1 5.3622628e-08
 outer loop
  vertex 0.66570497 0.68203986 -0.4917868
  vertex 1.0318154 0.6820398 -0.12544733
  vertex 0.6814239 0.68203986 -0.52378273
 endloop
endfacet
facet normal -1.3913242e-07 -1 -1.5816772e-07
 outer loop
  vertex -0.3239336 0.043516517 0.33704063
  vertex -0.2304933 0.043516487 0.44326803
  vertex -0.25829852 0.043516487 0.46772692
 endloop
endfacet
facet normal 6.0424213e-07 -1 -5.3151564e-07
 outer loop
  vertex -0.3239336 0.043516517 0.33704063
  vertex -0.25829852 0.043516487 0.46772692
  vertex -0.361871 0.043516487 0.34998277
 endloop
endfacet
facet normal 4.6512997e-07 -1 -6.8970024e-07
 outer loop
  vertex 0.8230257 0.043516904 -0.48344782
  vertex 0.79522043 0.043516874 -0.458989
  vertex 0.7017793 0.043516904 -0.5652157
 endloop
endfacet
facet normal 0 -1 0
 outer loop
  vertex 0.8230257 0.043516904 -0.48344782
  vertex 0.7017793 0.043516904 -0.5652157
  vertex 0.7194532 0.043516904 -0.601192
 endloop
endfacet
facet normal 0.33191812 -0.8645478 0.37734258
 outer loop
  vertex -0.10198128 -0.12599438 0.6463201
  vertex -0.16487598 -0.18173593 0.5739314
  vertex -0.13707054 -0.18173593 0.54947317
 endloop
endfacet
facet normal 0.3340291 -0.86416435 0.37635702
 outer loop
  vertex -0.10198128 -0.12599438 0.6463201
  vertex -0.13707054 -0.18173593 0.54947317
  vertex -0.074285984 -0.12599438 0.6217396
 endloop
endfacet
facet normal -0.33235115 -0.8641736 -0.3778183
 outer loop
  vertex 0.916448 -0.18173552 -0.377243
  vertex 0.88864255 -0.18173552 -0.3527837
  vertex 0.82585746 -0.12599397 -0.4250504
 endloop
endfacet
facet normal -0.33360067 -0.8645389 -0.3758764
 outer loop
  vertex 0.916448 -0.18173552 -0.377243
  vertex 0.82585746 -0.12599397 -0.4250504
  vertex 0.85355365 -0.12599397 -0.44963154
 endloop
endfacet
facet normal -0.75084716 -2.3915811e-06 0.66047597
 outer loop
  vertex -0.16487598 -0.18173593 0.5739314
  vertex -0.16487628 0.043516457 0.5739319
  vertex -0.25829852 0.043516487 0.46772692
 endloop
endfacet
facet normal -0.75887585 -0.007710686 0.6511896
 outer loop
  vertex -0.16487598 -0.18173593 0.5739314
  vertex -0.25829852 0.043516487 0.46772692
  vertex -0.22348619 -0.12599438 0.50628895
 endloop
endfacet
facet normal -0.6316643 -0.2921545 -0.718085
 outer loop
  vertex -0.25829852 0.043516487 0.46772692
  vertex -0.2304933 0.043516487 0.44326803
  vertex -0.19579124 -0.12599438 0.4817082
 endloop
endfacet
facet normal -0.63467 -0.2930148 -0.7150779
 outer loop
  vertex -0.25829852 0.043516487 0.46772692
  vertex -0.19579124 -0.12599438 0.4817082
  vertex -0.22348619 -0.12599438 0.50628895
 endloop
endfacet
facet normal 0.750846 1.0651551e-06 -0.66047734
 outer loop
  vertex -0.13707054 -0.18173593 0.54947317
  vertex -0.13707101 0.043516457 0.549473
  vertex -0.043648303 0.043516457 0.6556781
 endloop
endfacet
facet normal 0.75720006 -0.0060868436 -0.65315473
 outer loop
  vertex -0.13707054 -0.18173593 0.54947317
  vertex -0.043648303 0.043516457 0.6556781
  vertex -0.074285984 -0.12599438 0.6217396
 endloop
endfacet
facet normal 0.637841 -0.2595283 0.72512335
 outer loop
  vertex -0.043648303 0.043516457 0.6556781
  vertex -0.07145396 0.043516427 0.6801368
  vertex -0.10198128 -0.12599438 0.6463201
 endloop
endfacet
facet normal 0.6408943 -0.26041257 0.72210795
 outer loop
  vertex -0.043648303 0.043516457 0.6556781
  vertex -0.10198128 -0.12599438 0.6463201
  vertex -0.074285984 -0.12599438 0.6217396
 endloop
endfacet
facet normal -0.750849 -3.73454e-07 0.6604739
 outer loop
  vertex 0.88864255 -0.18173552 -0.3527837
  vertex 0.8886425 0.043516874 -0.35278365
  vertex 0.79522043 0.043516874 -0.458989
 endloop
endfacet
facet normal -0.7571965 -0.0060819783 0.65315884
 outer loop
  vertex 0.88864255 -0.18173552 -0.3527837
  vertex 0.79522043 0.043516874 -0.458989
  vertex 0.82585746 -0.12599397 -0.4250504
 endloop
endfacet
facet normal -0.63784736 -0.2595288 -0.7251176
 outer loop
  vertex 0.79522043 0.043516874 -0.458989
  vertex 0.8230257 0.043516904 -0.48344782
  vertex 0.85355365 -0.12599397 -0.44963154
 endloop
endfacet
facet normal -0.64089257 -0.2604107 -0.7221101
 outer loop
  vertex 0.79522043 0.043516874 -0.458989
  vertex 0.85355365 -0.12599397 -0.44963154
  vertex 0.82585746 -0.12599397 -0.4250504
 endloop
endfacet
facet normal 0.75084877 3.7345396e-07 -0.66047406
 outer loop
  vertex 0.916448 -0.18173552 -0.377243
  vertex 0.91644794 0.043516874 -0.37724295
  vertex 1.00987 0.043516874 -0.2710376
 endloop
endfacet
facet normal 0.758878 -0.007708428 -0.6511871
 outer loop
  vertex 0.916448 -0.18173552 -0.377243
  vertex 1.00987 0.043516874 -0.2710376
  vertex 0.97505796 -0.12599397 -0.3096002
 endloop
endfacet
facet normal 0.6316636 -0.29215482 0.7180854
 outer loop
  vertex 1.00987 0.043516874 -0.2710376
  vertex 0.9820648 0.043516845 -0.24657872
  vertex 0.9473628 -0.12599397 -0.285019
 endloop
endfacet
facet normal 0.63467306 -0.29301623 0.7150745
 outer loop
  vertex 1.00987 0.043516874 -0.2710376
  vertex 0.9473628 -0.12599397 -0.285019
  vertex 0.97505796 -0.12599397 -0.3096002
 endloop
endfacet
facet normal -0.3491644 -0.8488319 -0.3969491
 outer loop
  vertex -0.13707054 -0.18173593 0.54947317
  vertex -0.16487598 -0.18173593 0.5739314
  vertex -0.22348619 -0.12599438 0.50628895
 endloop
endfacet
facet normal -0.35047475 -0.84925824 -0.39487723
 outer loop
  vertex -0.13707054 -0.18173593 0.54947317
  vertex -0.22348619 -0.12599438 0.50628895
  vertex -0.19579124 -0.12599438 0.4817082
 endloop
endfacet
facet normal 0.34871128 -0.849267 0.39641657
 outer loop
  vertex 0.9473628 -0.12599397 -0.285019
  vertex 0.88864255 -0.18173552 -0.3527837
  vertex 0.916448 -0.18173552 -0.377243
 endloop
endfacet
facet normal 0.350942 -0.84882194 0.3953998
 outer loop
  vertex 0.9473628 -0.12599397 -0.285019
  vertex 0.916448 -0.18173552 -0.377243
  vertex 0.97505796 -0.12599397 -0.3096002
 endloop
endfacet
facet normal -0.75084674 -2.3915818e-06 0.66047645
 outer loop
  vertex -0.07145396 0.043516427 0.6801368
  vertex -0.16487628 0.043516457 0.5739319
  vertex -0.16487598 -0.18173593 0.5739314
 endloop
endfacet
facet normal -0.75716084 0.0060468805 0.6532005
 outer loop
  vertex -0.07145396 0.043516427 0.6801368
  vertex -0.16487598 -0.18173593 0.5739314
  vertex -0.10198128 -0.12599438 0.6463201
 endloop
endfacet
facet normal 0.750847 1.065158e-06 -0.6604762
 outer loop
  vertex -0.2304933 0.043516487 0.44326803
  vertex -0.13707101 0.043516457 0.549473
  vertex -0.13707054 -0.18173593 0.54947317
 endloop
endfacet
facet normal 0.7588269 0.0076620155 -0.6512473
 outer loop
  vertex -0.2304933 0.043516487 0.44326803
  vertex -0.13707054 -0.18173593 0.54947317
  vertex -0.19579124 -0.12599438 0.4817082
 endloop
endfacet
facet normal -0.7508469 -3.734541e-07 0.6604764
 outer loop
  vertex 0.9820648 0.043516845 -0.24657872
  vertex 0.8886425 0.043516874 -0.35278365
  vertex 0.88864255 -0.18173552 -0.3527837
 endloop
endfacet
facet normal -0.7588281 0.007661924 0.6512459
 outer loop
  vertex 0.9820648 0.043516845 -0.24657872
  vertex 0.88864255 -0.18173552 -0.3527837
  vertex 0.9473628 -0.12599397 -0.285019
 endloop
endfacet
facet normal 0.750847 3.7345407e-07 -0.6604763
 outer loop
  vertex 0.8230257 0.043516904 -0.48344782
  vertex 0.91644794 0.043516874 -0.37724295
  vertex 0.916448 -0.18173552 -0.377243
 endloop
endfacet
facet normal 0.757164 0.006052612 -0.6531968
 outer loop
  vertex 0.8230257 0.043516904 -0.48344782
  vertex 0.916448 -0.18173552 -0.377243
  vertex 0.85355365 -0.12599397 -0.44963154
 endloop
endfacet
facet normal 3.1049862e-07 -1 -2.7312453e-07
 outer loop
  vertex 0.52883804 1.1340381 -0.036286015
  vertex 0.74528706 1.1340382 -0.22668329
  vertex 0.87991726 1.1340382 -0.07363043
 endloop
endfacet
facet normal 2.7911727e-07 -1 -5.6814434e-07
 outer loop
  vertex 0.52883804 1.1340381 -0.036286015
  vertex 0.87991726 1.1340382 -0.07363043
  vertex 0.8538653 1.134038 0.3332152
 endloop
endfacet
facet normal 5.956149e-08 -1 -3.750147e-07
 outer loop
  vertex 0.22273317 1.134038 0.23297602
  vertex 0.52883804 1.1340381 -0.036286015
  vertex 0.8538653 1.134038 0.3332152
 endloop
endfacet
facet normal 0 -1 -0
 outer loop
  vertex 0.22273317 1.134038 0.23297602
  vertex 0.8538653 1.134038 0.3332152
  vertex 0.5477608 1.134038 0.60247767
 endloop
endfacet
facet normal -1.2631459e-07 1 2.571138e-07
 outer loop
  vertex 0.18577754 1.2205356 -0.45864603
  vertex -0.1524229 1.2205355 -0.16115269
  vertex 0.93277735 1.2205356 -0.091660745
 endloop
endfacet
facet normal -3.049493e-07 1 6.2072536e-07
 outer loop
  vertex 0.18577754 1.2205356 -0.45864603
  vertex 0.93277735 1.2205356 -0.091660745
  vertex 0.6352825 1.2205358 -0.42986205
 endloop
endfacet
facet normal -1.4322751e-07 1 5.212293e-07
 outer loop
  vertex 0.93277735 1.2205356 -0.091660745
  vertex -0.1524229 1.2205355 -0.16115269
  vertex -0.18120766 1.2205353 0.28835353
 endloop
endfacet
facet normal -2.3571498e-07 1 2.501088e-07
 outer loop
  vertex 0.93277735 1.2205356 -0.091660745
  vertex -0.18120766 1.2205353 0.28835353
  vertex 0.9039947 1.2205355 0.35784274
 endloop
endfacet
facet normal -7.3615496e-08 -1 -2.1579808e-07
 outer loop
  vertex -0.21157861 0.043516517 0.29871282
  vertex -0.2304933 0.043516487 0.44326803
  vertex -0.3239336 0.043516517 0.33704063
 endloop
endfacet
facet normal 2.0402895e-07 -1 -1.79471e-07
 outer loop
  vertex 0.10213798 0.043516487 0.6553566
  vertex -0.043648303 0.043516457 0.6556781
  vertex -0.054720283 0.043516487 0.4770346
 endloop
endfacet
facet normal 2.0402663e-07 -1 -1.7947085e-07
 outer loop
  vertex -0.054720283 0.043516487 0.4770346
  vertex -0.043648303 0.043516457 0.6556781
  vertex -0.13707101 0.043516457 0.549473
 endloop
endfacet
facet normal 6.486786e-08 -1 -3.3767188e-07
 outer loop
  vertex -0.054720283 0.043516487 0.4770346
  vertex -0.13707101 0.043516457 0.549473
  vertex -0.2304933 0.043516487 0.44326803
 endloop
endfacet
facet normal 3.863398e-08 -1 -2.0111051e-07
 outer loop
  vertex -0.054720283 0.043516487 0.4770346
  vertex -0.2304933 0.043516487 0.44326803
  vertex -0.21157861 0.043516517 0.29871282
 endloop
endfacet
facet normal 0.74877363 -0.07429743 -0.65864855
 outer loop
  vertex 0.006284386 1.1340379 0.42337283
  vertex -0.054720283 0.043516487 0.4770346
  vertex -0.21157861 0.043516517 0.29871282
 endloop
endfacet
facet normal 0.74877167 -0.074296765 -0.6586509
 outer loop
  vertex 0.006284386 1.1340379 0.42337283
  vertex -0.21157861 0.043516517 0.29871282
  vertex -0.12834674 1.134038 0.27032062
 endloop
endfacet
facet normal 3.1049822e-07 -1 -2.73126e-07
 outer loop
  vertex -0.102294505 1.134038 -0.13652563
  vertex 0.22273317 1.134038 0.23297602
  vertex 0.006284386 1.1340379 0.42337283
 endloop
endfacet
facet normal -8.253675e-07 -1 -5.2852073e-08
 outer loop
  vertex -0.102294505 1.134038 -0.13652563
  vertex 0.006284386 1.1340379 0.42337283
  vertex -0.12834674 1.134038 0.27032062
 endloop
endfacet
facet normal 5.956148e-08 -1 -3.7501474e-07
 outer loop
  vertex 0.20381066 1.1340382 -0.40578726
  vertex 0.52883804 1.1340381 -0.036286015
  vertex 0.22273317 1.134038 0.23297602
 endloop
endfacet
facet normal 4.3911058e-07 -1 -3.8625834e-07
 outer loop
  vertex 0.20381066 1.1340382 -0.40578726
  vertex 0.22273317 1.134038 0.23297602
  vertex -0.102294505 1.134038 -0.13652563
 endloop
endfacet
facet normal 0 -1 0
 outer loop
  vertex 0.20381066 1.1340382 -0.40578726
  vertex 0.6106563 1.1340382 -0.3797353
  vertex 0.74528706 1.1340382 -0.22668329
 endloop
endfacet
facet normal 1.5050387e-07 -1 -4.5501108e-07
 outer loop
  vertex 0.20381066 1.1340382 -0.40578726
  vertex 0.74528706 1.1340382 -0.22668329
  vertex 0.52883804 1.1340381 -0.036286015
 endloop
endfacet
facet normal -0.7487713 -0.074297145 0.65865135
 outer loop
  vertex 0.74528706 1.1340382 -0.22668329
  vertex 0.8062915 0.043516845 -0.2803448
  vertex 0.9631506 0.043516815 -0.102023475
 endloop
endfacet
facet normal -0.7487752 -0.07429846 0.6586467
 outer loop
  vertex 0.74528706 1.1340382 -0.22668329
  vertex 0.9631506 0.043516815 -0.102023475
  vertex 0.87991726 1.1340382 -0.07363043
 endloop
endfacet
facet normal 6.4866676e-08 -1 -3.3767094e-07
 outer loop
  vertex 0.9820648 0.043516845 -0.24657872
  vertex 0.8062915 0.043516845 -0.2803448
  vertex 0.8886425 0.043516874 -0.35278365
 endloop
endfacet
facet normal 2.0402659e-07 -1 -1.7946915e-07
 outer loop
  vertex 0.8062915 0.043516845 -0.2803448
  vertex 0.79522043 0.043516874 -0.458989
  vertex 0.8886425 0.043516874 -0.35278365
 endloop
endfacet
facet normal 3.863342e-08 -1 -2.011107e-07
 outer loop
  vertex 0.9820648 0.043516845 -0.24657872
  vertex 0.9631506 0.043516815 -0.102023475
  vertex 0.8062915 0.043516845 -0.2803448
 endloop
endfacet
facet normal -6.2002814e-10 -1 -2.8000852e-07
 outer loop
  vertex 0.79522043 0.043516874 -0.458989
  vertex 0.6494335 0.043516874 -0.45866618
  vertex 0.7017793 0.043516904 -0.5652157
 endloop
endfacet
facet normal -3.6935313e-10 -1 -1.6680215e-07
 outer loop
  vertex 0.79522043 0.043516874 -0.458989
  vertex 0.8062915 0.043516845 -0.2803448
  vertex 0.6494335 0.043516874 -0.45866618
 endloop
endfacet
facet normal 0.7450666 0.12384436 -0.6553918
 outer loop
  vertex 1.1021506 0.1318433 -0.14944097
  vertex 0.91644794 0.043516874 -0.37724295
  vertex 0.7141918 0.13184336 -0.59048265
 endloop
endfacet
facet normal 0.7450666 0.123844825 -0.6553917
 outer loop
  vertex 0.7141918 0.13184336 -0.59048265
  vertex 0.91644794 0.043516874 -0.37724295
  vertex 0.8230257 0.043516904 -0.48344782
 endloop
endfacet
facet normal 0.74506706 0.12384643 -0.6553908
 outer loop
  vertex 0.7141918 0.13184336 -0.59048265
  vertex 0.8230257 0.043516904 -0.48344782
  vertex 0.7194532 0.043516904 -0.601192
 endloop
endfacet
facet normal -0.7450691 0.12381654 0.65539414
 outer loop
  vertex 0.037379026 0.13184288 0.7871744
  vertex -0.16487628 0.043516457 0.5739319
  vertex -0.07145396 0.043516427 0.6801368
 endloop
endfacet
facet normal -0.7450721 0.12382662 0.65538883
 outer loop
  vertex 0.037379026 0.13184288 0.7871744
  vertex -0.07145396 0.043516427 0.6801368
  vertex 0.03211844 0.043516427 0.797882
 endloop
endfacet
facet normal -0.74506944 0.123819835 0.6553931
 outer loop
  vertex -0.35058016 0.13184294 0.3461314
  vertex -0.16487628 0.043516457 0.5739319
  vertex 0.037379026 0.13184288 0.7871744
 endloop
endfacet
facet normal 0.27140856 0.595827 -0.75586224
 outer loop
  vertex 0.2308963 0.98195803 -0.61556196
  vertex 0.7663686 0.58301795 -0.73776346
  vertex 0.7269701 0.54391205 -0.78273654
 endloop
endfacet
facet normal 0.27140304 0.59582275 -0.75586754
 outer loop
  vertex 0.2308963 0.98195803 -0.61556196
  vertex 0.7269701 0.54391205 -0.78273654
  vertex 0.19149803 0.9428518 -0.6605344
 endloop
endfacet
facet normal 0.7569474 -0.0112149175 -0.65337956
 outer loop
  vertex 0.7663686 0.58301795 -0.73776346
  vertex 0.99973136 0.026007205 -0.45784935
  vertex 0.96033263 -0.013098896 -0.502822
 endloop
endfacet
facet normal 0.7569509 -0.011212217 -0.65337557
 outer loop
  vertex 0.7663686 0.58301795 -0.73776346
  vertex 0.96033263 -0.013098896 -0.502822
  vertex 0.7269701 0.54391205 -0.78273654
 endloop
endfacet
facet normal 0.7539779 -0.6499405 -0.09536602
 outer loop
  vertex 0.99973136 0.026007205 -0.45784935
  vertex 0.92607975 -0.08174014 -0.30582792
  vertex 0.8866812 -0.12084639 -0.35080096
 endloop
endfacet
facet normal 0.75397635 -0.6499418 -0.09536952
 outer loop
  vertex 0.99973136 0.026007205 -0.45784935
  vertex 0.8866812 -0.12084639 -0.35080096
  vertex 0.96033263 -0.013098896 -0.502822
 endloop
endfacet
facet normal -0.24052073 -0.61823416 0.7482889
 outer loop
  vertex -0.100471914 -0.07893592 0.5870477
  vertex -0.26509845 0.043328553 0.63514674
  vertex -0.30449653 0.004222691 0.59017396
 endloop
endfacet
facet normal -0.24051781 -0.6182273 0.74829555
 outer loop
  vertex -0.100471914 -0.07893592 0.5870477
  vertex -0.30449653 0.004222691 0.59017396
  vertex -0.13987064 -0.11804241 0.5420751
 endloop
endfacet
facet normal -0.75694144 0.011223001 0.6533863
 outer loop
  vertex -0.26509845 0.043328553 0.63514674
  vertex -0.49845994 0.60034 0.3552322
  vertex -0.5378591 0.5612334 0.31026042
 endloop
endfacet
facet normal -0.756952 0.011210035 0.6533744
 outer loop
  vertex -0.26509845 0.043328553 0.63514674
  vertex -0.5378591 0.5612334 0.31026042
  vertex -0.30449653 0.004222691 0.59017396
 endloop
endfacet
facet normal -0.7774768 0.6107537 0.15003277
 outer loop
  vertex -0.49845994 0.60034 0.3552322
  vertex -0.29301268 0.98913246 -0.1628277
  vertex -0.3324113 0.9500265 -0.20780054
 endloop
endfacet
facet normal -0.7774754 0.6107551 0.150034
 outer loop
  vertex -0.49845994 0.60034 0.3552322
  vertex -0.3324113 0.9500265 -0.20780054
  vertex -0.5378591 0.5612334 0.31026042
 endloop
endfacet
facet normal -0.3513584 0.8368199 -0.41985676
 outer loop
  vertex -0.29301268 0.98913246 -0.1628277
  vertex 0.2308963 0.98195803 -0.61556196
  vertex 0.19149803 0.9428518 -0.6605344
 endloop
endfacet
facet normal -0.35135362 0.83682406 -0.4198524
 outer loop
  vertex -0.29301268 0.98913246 -0.1628277
  vertex 0.19149803 0.9428518 -0.6605344
  vertex -0.3324113 0.9500265 -0.20780054
 endloop
endfacet
facet normal 0.551471 0.5473729 0.629494
 outer loop
  vertex 0.2308963 0.98195803 -0.61556196
  vertex -0.29301268 0.98913246 -0.1628277
  vertex -0.25316775 0.9395908 -0.15465537
 endloop
endfacet
facet normal 0.5514663 0.54738224 0.62948996
 outer loop
  vertex 0.2308963 0.98195803 -0.61556196
  vertex -0.25316775 0.9395908 -0.15465537
  vertex 0.23234332 0.9329419 -0.57420695
 endloop
endfacet
facet normal 0.5514734 0.5473745 0.62949044
 outer loop
  vertex -0.29301268 0.98913246 -0.1628277
  vertex -0.49845994 0.60034 0.3552322
  vertex -0.44355863 0.57929325 0.32543644
 endloop
endfacet
facet normal 0.5514735 0.54737455 0.62949044
 outer loop
  vertex -0.29301268 0.98913246 -0.1628277
  vertex -0.44355863 0.57929325 0.32543644
  vertex -0.25316775 0.9395908 -0.15465537
 endloop
endfacet
facet normal 0.55145425 0.5473777 0.62950456
 outer loop
  vertex -0.49845994 0.60034 0.3552322
  vertex -0.26509845 0.043328553 0.63514674
  vertex -0.2272991 0.06310648 0.58483636
 endloop
endfacet
facet normal 0.5514732 0.5473793 0.62948656
 outer loop
  vertex -0.49845994 0.60034 0.3552322
  vertex -0.2272991 0.06310648 0.58483636
  vertex -0.44355863 0.57929325 0.32543644
 endloop
endfacet
facet normal 0.5254735 0.41544425 0.7424848
 outer loop
  vertex -0.26509845 0.043328553 0.63514674
  vertex -0.100471914 -0.07893592 0.5870477
  vertex -0.11377734 -0.029919922 0.5690382
 endloop
endfacet
facet normal 0.5438472 0.5570837 0.62760484
 outer loop
  vertex -0.26509845 0.043328553 0.63514674
  vertex -0.11377734 -0.029919922 0.5690382
  vertex -0.2272991 0.06310648 0.58483636
 endloop
endfacet
facet normal 0.5523609 0.5301127 0.64333355
 outer loop
  vertex 0.92607975 -0.08174014 -0.30582792
  vertex 0.99973136 0.026007205 -0.45784935
  vertex 0.944829 0.04705432 -0.42805365
 endloop
endfacet
facet normal 0.28521526 0.63760346 0.71562153
 outer loop
  vertex 0.92607975 -0.08174014 -0.30582792
  vertex 0.944829 0.04705432 -0.42805365
  vertex 0.89902925 -0.03219819 -0.3391876
 endloop
endfacet
facet normal 0.5514694 0.5473784 0.62949055
 outer loop
  vertex 0.99973136 0.026007205 -0.45784935
  vertex 0.7663686 0.58301795 -0.73776346
  vertex 0.7285701 0.56324106 -0.6874527
 endloop
endfacet
facet normal 0.551468 0.54737824 0.6294919
 outer loop
  vertex 0.99973136 0.026007205 -0.45784935
  vertex 0.7285701 0.56324106 -0.6874527
  vertex 0.944829 0.04705432 -0.42805365
 endloop
endfacet
facet normal 0.5514694 0.5473809 0.62948835
 outer loop
  vertex 0.7663686 0.58301795 -0.73776346
  vertex 0.2308963 0.98195803 -0.61556196
  vertex 0.23234332 0.9329419 -0.57420695
 endloop
endfacet
facet normal 0.55146885 0.54737926 0.6294904
 outer loop
  vertex 0.7663686 0.58301795 -0.73776346
  vertex 0.23234332 0.9329419 -0.57420695
  vertex 0.7285701 0.56324106 -0.6874527
 endloop
endfacet
facet normal -0.5514659 -0.54737186 -0.62949926
 outer loop
  vertex 0.19149803 0.9428518 -0.6605344
  vertex 0.7269701 0.54391205 -0.78273654
  vertex 0.6891712 0.52413446 -0.7324259
 endloop
endfacet
facet normal -0.5514706 -0.54737926 -0.6294889
 outer loop
  vertex 0.19149803 0.9428518 -0.6605344
  vertex 0.6891712 0.52413446 -0.7324259
  vertex 0.19294438 0.8938359 -0.6191791
 endloop
endfacet
facet normal -0.5514654 -0.5473786 -0.6294939
 outer loop
  vertex 0.7269701 0.54391205 -0.78273654
  vertex 0.96033263 -0.013098896 -0.502822
  vertex 0.90543026 0.007947862 -0.47302628
 endloop
endfacet
facet normal -0.5514603 -0.5473792 -0.6294978
 outer loop
  vertex 0.7269701 0.54391205 -0.78273654
  vertex 0.90543026 0.007947862 -0.47302628
  vertex 0.6891712 0.52413446 -0.7324259
 endloop
endfacet
facet normal -0.39032713 -0.65130365 -0.650729
 outer loop
  vertex 0.96033263 -0.013098896 -0.502822
  vertex 0.8866812 -0.12084639 -0.35080096
  vertex 0.8596312 -0.0713042 -0.38416147
 endloop
endfacet
facet normal -0.5532349 -0.45944285 -0.6948694
 outer loop
  vertex 0.96033263 -0.013098896 -0.502822
  vertex 0.8596312 -0.0713042 -0.38416147
  vertex 0.90543026 0.007947862 -0.47302628
 endloop
endfacet
facet normal -0.5718062 -0.5204313 -0.63418376
 outer loop
  vertex -0.13987064 -0.11804241 0.5420751
  vertex -0.30449653 0.004222691 0.59017396
  vertex -0.26669765 0.023999631 0.53986335
 endloop
endfacet
facet normal -0.44872436 -0.41299888 -0.79251397
 outer loop
  vertex -0.13987064 -0.11804241 0.5420751
  vertex -0.26669765 0.023999631 0.53986335
  vertex -0.15317583 -0.06902641 0.5240651
 endloop
endfacet
facet normal -0.5514748 -0.5473779 -0.6294863
 outer loop
  vertex -0.30449653 0.004222691 0.59017396
  vertex -0.5378591 0.5612334 0.31026042
  vertex -0.48295754 0.54018664 0.28046423
 endloop
endfacet
facet normal -0.5514647 -0.547379 -0.6294942
 outer loop
  vertex -0.30449653 0.004222691 0.59017396
  vertex -0.48295754 0.54018664 0.28046423
  vertex -0.26669765 0.023999631 0.53986335
 endloop
endfacet
facet normal -0.5514703 -0.5473769 -0.62949103
 outer loop
  vertex -0.5378591 0.5612334 0.31026042
  vertex -0.3324113 0.9500265 -0.20780054
  vertex -0.29256684 0.90048456 -0.19962713
 endloop
endfacet
facet normal -0.5514754 -0.5473725 -0.62949044
 outer loop
  vertex -0.5378591 0.5612334 0.31026042
  vertex -0.29256684 0.90048456 -0.19962713
  vertex -0.48295754 0.54018664 0.28046423
 endloop
endfacet
facet normal -0.55146736 -0.54738075 -0.6294904
 outer loop
  vertex -0.3324113 0.9500265 -0.20780054
  vertex 0.19149803 0.9428518 -0.6605344
  vertex 0.19294438 0.8938359 -0.6191791
 endloop
endfacet
facet normal -0.5514689 -0.5473762 -0.6294929
 outer loop
  vertex -0.3324113 0.9500265 -0.20780054
  vertex 0.19294438 0.8938359 -0.6191791
  vertex -0.29256684 0.90048456 -0.19962713
 endloop
endfacet
facet normal -0.7761915 0.61316854 0.1468028
 outer loop
  vertex 0.89902925 -0.03219819 -0.3391876
  vertex 0.944829 0.04705432 -0.42805365
  vertex 0.90543026 0.007947862 -0.47302628
 endloop
endfacet
facet normal -0.7761956 0.61316377 0.14680119
 outer loop
  vertex 0.89902925 -0.03219819 -0.3391876
  vertex 0.90543026 0.007947862 -0.47302628
  vertex 0.8596312 -0.0713042 -0.38416147
 endloop
endfacet
facet normal -0.7569498 0.011213348 0.65337676
 outer loop
  vertex 0.944829 0.04705432 -0.42805365
  vertex 0.7285701 0.56324106 -0.6874527
  vertex 0.6891712 0.52413446 -0.7324259
 endloop
endfacet
facet normal -0.75694793 0.011215843 0.65337896
 outer loop
  vertex 0.944829 0.04705432 -0.42805365
  vertex 0.6891712 0.52413446 -0.7324259
  vertex 0.90543026 0.007947862 -0.47302628
 endloop
endfacet
facet normal -0.27140117 -0.595821 0.7558695
 outer loop
  vertex 0.7285701 0.56324106 -0.6874527
  vertex 0.23234332 0.9329419 -0.57420695
  vertex 0.19294438 0.8938359 -0.6191791
 endloop
endfacet
facet normal -0.2714043 -0.59582514 0.7558652
 outer loop
  vertex 0.7285701 0.56324106 -0.6874527
  vertex 0.19294438 0.8938359 -0.6191791
  vertex 0.6891712 0.52413446 -0.7324259
 endloop
endfacet
facet normal 0.7774769 -0.61075395 -0.15003099
 outer loop
  vertex -0.25316775 0.9395908 -0.15465537
  vertex -0.44355863 0.57929325 0.32543644
  vertex -0.48295754 0.54018664 0.28046423
 endloop
endfacet
facet normal 0.7774738 -0.6107568 -0.15003525
 outer loop
  vertex -0.25316775 0.9395908 -0.15465537
  vertex -0.48295754 0.54018664 0.28046423
  vertex -0.29256684 0.90048456 -0.19962713
 endloop
endfacet
facet normal 0.35135746 -0.83682 0.41985744
 outer loop
  vertex 0.23234332 0.9329419 -0.57420695
  vertex -0.25316775 0.9395908 -0.15465537
  vertex -0.29256684 0.90048456 -0.19962713
 endloop
endfacet
facet normal 0.35135525 -0.8368225 0.4198542
 outer loop
  vertex 0.23234332 0.9329419 -0.57420695
  vertex -0.29256684 0.90048456 -0.19962713
  vertex 0.19294438 0.8938359 -0.6191791
 endloop
endfacet
facet normal 0.33814257 0.54315674 -0.76853126
 outer loop
  vertex -0.2272991 0.06310648 0.58483636
  vertex -0.11377734 -0.029919922 0.5690382
  vertex -0.15317583 -0.06902641 0.5240651
 endloop
endfacet
facet normal 0.3381387 0.54315567 -0.76853377
 outer loop
  vertex -0.2272991 0.06310648 0.58483636
  vertex -0.15317583 -0.06902641 0.5240651
  vertex -0.26669765 0.023999631 0.53986335
 endloop
endfacet
facet normal 0.7569508 -0.011212569 -0.65337574
 outer loop
  vertex -0.44355863 0.57929325 0.32543644
  vertex -0.2272991 0.06310648 0.58483636
  vertex -0.26669765 0.023999631 0.53986335
 endloop
endfacet
facet normal 0.7569441 -0.011217624 -0.6533833
 outer loop
  vertex -0.44355863 0.57929325 0.32543644
  vertex -0.26669765 0.023999631 0.53986335
  vertex -0.48295754 0.54018664 0.28046423
 endloop
endfacet
facet normal 0.75648296 -0.02902269 -0.65336907
 outer loop
  vertex -0.07961619 -0.07985979 0.5958497
  vertex -0.1327703 -0.13196391 0.53662133
  vertex -0.15075952 -0.066821754 0.51289946
 endloop
endfacet
facet normal 0.75648344 -0.029018646 -0.6533688
 outer loop
  vertex -0.07961619 -0.07985979 0.5958497
  vertex -0.15075952 -0.066821754 0.51289946
  vertex -0.09760517 -0.0147176385 0.5721285
 endloop
endfacet
facet normal -0.7540044 0.012473793 0.65675086
 outer loop
  vertex 0.87452006 -0.1343149 -0.34510472
  vertex 0.9272863 -0.08222878 -0.28551397
  vertex 0.89039737 -0.016368866 -0.32911643
 endloop
endfacet
facet normal -0.75400865 0.012475017 0.6567461
 outer loop
  vertex 0.87452006 -0.1343149 -0.34510472
  vertex 0.89039737 -0.016368866 -0.32911643
  vertex 0.83763134 -0.068454504 -0.3887076
 endloop
endfacet
facet normal -0.38691726 -0.500688 0.7743426
 outer loop
  vertex -0.100471914 -0.07893592 0.5870477
  vertex -0.13987064 -0.11804241 0.5420751
  vertex -0.1327703 -0.13196391 0.53662133
 endloop
endfacet
facet normal -0.35071594 -0.52428293 0.77596766
 outer loop
  vertex -0.100471914 -0.07893592 0.5870477
  vertex -0.1327703 -0.13196391 0.53662133
  vertex -0.07961619 -0.07985979 0.5958497
 endloop
endfacet
facet normal -0.9024217 -0.3414891 -0.26271713
 outer loop
  vertex -0.13987064 -0.11804241 0.5420751
  vertex -0.15317583 -0.06902641 0.5240651
  vertex -0.15075952 -0.066821754 0.51289946
 endloop
endfacet
facet normal -0.8955356 -0.3482033 -0.2770745
 outer loop
  vertex -0.13987064 -0.11804241 0.5420751
  vertex -0.15075952 -0.066821754 0.51289946
  vertex -0.1327703 -0.13196391 0.53662133
 endloop
endfacet
facet normal -0.68024254 0.73186874 -0.04047503
 outer loop
  vertex -0.15317583 -0.06902641 0.5240651
  vertex -0.11377734 -0.029919922 0.5690382
  vertex -0.09760517 -0.0147176385 0.5721285
 endloop
endfacet
facet normal -0.69514394 0.71882033 -0.008502255
 outer loop
  vertex -0.15317583 -0.06902641 0.5240651
  vertex -0.09760517 -0.0147176385 0.5721285
  vertex -0.15075952 -0.066821754 0.51289946
 endloop
endfacet
facet normal -0.3696923 0.23037714 0.9001411
 outer loop
  vertex -0.11377734 -0.029919922 0.5690382
  vertex -0.100471914 -0.07893592 0.5870477
  vertex -0.07961619 -0.07985979 0.5958497
 endloop
endfacet
facet normal -0.38021663 0.22195843 0.8978695
 outer loop
  vertex -0.11377734 -0.029919922 0.5690382
  vertex -0.07961619 -0.07985979 0.5958497
  vertex -0.09760517 -0.0147176385 0.5721285
 endloop
endfacet
facet normal 0.7368473 -0.67339474 -0.059964202
 outer loop
  vertex 0.8866812 -0.12084639 -0.35080096
  vertex 0.92607975 -0.08174014 -0.30582792
  vertex 0.9272863 -0.08222878 -0.28551397
 endloop
endfacet
facet normal 0.730339 -0.6811538 -0.051326837
 outer loop
  vertex 0.8866812 -0.12084639 -0.35080096
  vertex 0.9272863 -0.08222878 -0.28551397
  vertex 0.87452006 -0.1343149 -0.34510472
 endloop
endfacet
facet normal 0.877823 0.4789849 -0.00047065783
 outer loop
  vertex 0.92607975 -0.08174014 -0.30582792
  vertex 0.89902925 -0.03219819 -0.3391876
  vertex 0.89039737 -0.016368866 -0.32911643
 endloop
endfacet
facet normal 0.8831082 0.46735585 -0.04121167
 outer loop
  vertex 0.92607975 -0.08174014 -0.30582792
  vertex 0.89039737 -0.016368866 -0.32911643
  vertex 0.9272863 -0.08222878 -0.28551397
 endloop
endfacet
facet normal 0.2349139 0.6221836 -0.7467951
 outer loop
  vertex 0.89902925 -0.03219819 -0.3391876
  vertex 0.8596312 -0.0713042 -0.38416147
  vertex 0.83763134 -0.068454504 -0.3887076
 endloop
endfacet
facet normal 0.24504624 0.6120223 -0.7519183
 outer loop
  vertex 0.89902925 -0.03219819 -0.3391876
  vertex 0.83763134 -0.068454504 -0.3887076
  vertex 0.89039737 -0.016368866 -0.32911643
 endloop
endfacet
facet normal 0.14793827 -0.49555722 -0.8558839
 outer loop
  vertex 0.8596312 -0.0713042 -0.38416147
  vertex 0.8866812 -0.12084639 -0.35080096
  vertex 0.87452006 -0.1343149 -0.34510472
 endloop
endfacet
facet normal 0.111606255 -0.50436693 -0.8562465
 outer loop
  vertex 0.8596312 -0.0713042 -0.38416147
  vertex 0.87452006 -0.1343149 -0.34510472
  vertex 0.83763134 -0.068454504 -0.3887076
 endloop
endfacet
endsolid 
